<?xml version="1.0" encoding="UTF-8"?> <svg xmlns="http://www.w3.org/2000/svg" width="30" height="30" viewBox="0 0 30 30" fill="none"> <circle cx="14.7698" cy="14.9778" r="14.636" fill="black"></circle> <g clip-path="url(#clip0_772_13)"> <path d="M15.0005 8.54594C17.1025 8.54594 17.3515 8.55397 18.1817 8.59185C18.9493 8.62688 19.3661 8.7551 19.6435 8.86291C19.9855 8.98911 20.2948 9.19035 20.5487 9.45182C20.8102 9.70575 21.0114 10.0151 21.1376 10.357C21.2454 10.6344 21.3737 11.0513 21.4087 11.8188C21.4466 12.649 21.4546 12.8979 21.4546 15.0001C21.4546 17.1022 21.4466 17.3511 21.4087 18.1813C21.3736 18.9489 21.2454 19.3657 21.1376 19.6431C21.0066 19.9827 20.806 20.291 20.5487 20.5483C20.2914 20.8056 19.983 21.0063 19.6435 21.1372C19.3661 21.245 18.9493 21.3733 18.1817 21.4083C17.3517 21.4462 17.1027 21.4542 15.0005 21.4542C12.8982 21.4542 12.6493 21.4462 11.8192 21.4083C11.0516 21.3733 10.6348 21.245 10.3574 21.1372C10.0155 21.011 9.70615 20.8098 9.45221 20.5483C9.19074 20.2944 8.98951 19.9851 8.8633 19.6431C8.75549 19.3657 8.62724 18.9489 8.59224 18.1813C8.55437 17.3512 8.54634 17.1022 8.54634 15.0001C8.54634 12.8979 8.55437 12.649 8.59224 11.8188C8.62727 11.0513 8.75549 10.6344 8.8633 10.357C8.98952 10.015 9.19078 9.70573 9.45227 9.45179C9.70621 9.19032 10.0155 8.98908 10.3575 8.86288C10.6349 8.75507 11.0517 8.62682 11.8193 8.59182C12.6494 8.55394 12.8984 8.54591 15.0005 8.54591M15.0005 7.12744C12.8625 7.12744 12.5943 7.1365 11.7547 7.17482C10.9167 7.21307 10.3445 7.34613 9.84374 7.54075C9.31845 7.73843 8.8426 8.04831 8.44937 8.44879C8.0488 8.84199 7.73884 9.31784 7.54109 9.84316C7.34662 10.3439 7.21355 10.9162 7.17546 11.7542C7.13699 12.5937 7.12793 12.8619 7.12793 15C7.12793 17.138 7.13699 17.4062 7.17546 18.2458C7.21371 19.0838 7.34677 19.656 7.5414 20.1568C7.73908 20.682 8.04896 21.1579 8.44943 21.5511C8.84266 21.9516 9.31851 22.2615 9.8438 22.4592C10.3446 22.6538 10.9168 22.7868 11.7548 22.8251C12.5945 22.8634 12.8626 22.8725 15.0006 22.8725C17.1386 22.8725 17.4068 22.8634 18.2464 22.8251C19.0844 22.7868 19.6566 22.6538 20.1574 22.4592C20.6803 22.2569 21.1553 21.9476 21.5517 21.5511C21.9482 21.1547 22.2575 20.6797 22.4598 20.1568C22.6544 19.656 22.7875 19.0837 22.8257 18.2458C22.864 17.4061 22.8731 17.138 22.8731 15C22.8731 12.8619 22.864 12.5937 22.8257 11.7542C22.7875 10.9162 22.6544 10.3439 22.4598 9.84319C22.2621 9.3179 21.9522 8.84204 21.5517 8.44882C21.1585 8.04826 20.6826 7.73832 20.1573 7.5406C19.6565 7.34613 19.0842 7.21307 18.2463 7.17497C17.4067 7.1365 17.1385 7.12744 15.0005 7.12744H15.0005Z" fill="#FAD1D1"></path> <path d="M14.9997 10.9575C14.2001 10.9575 13.4185 11.1946 12.7537 11.6388C12.0889 12.083 11.5707 12.7144 11.2648 13.4531C10.9588 14.1918 10.8787 15.0047 11.0347 15.7889C11.1907 16.5731 11.5757 17.2934 12.1411 17.8588C12.7065 18.4241 13.4268 18.8092 14.211 18.9652C14.9952 19.1211 15.808 19.0411 16.5467 18.7351C17.2854 18.4291 17.9168 17.911 18.361 17.2462C18.8052 16.5813 19.0423 15.7997 19.0423 15.0002C19.0423 13.928 18.6164 12.8997 17.8583 12.1416C17.1001 11.3834 16.0719 10.9575 14.9997 10.9575ZM14.9997 17.6243C14.4807 17.6243 13.9733 17.4704 13.5418 17.1821C13.1103 16.8937 12.7739 16.4839 12.5753 16.0044C12.3767 15.5249 12.3247 14.9972 12.426 14.4882C12.5272 13.9792 12.7772 13.5116 13.1442 13.1446C13.5112 12.7776 13.9787 12.5277 14.4878 12.4264C14.9968 12.3252 15.5244 12.3772 16.0039 12.5758C16.4834 12.7744 16.8933 13.1107 17.1816 13.5423C17.47 13.9738 17.6239 14.4812 17.6239 15.0002C17.6239 15.6961 17.3474 16.3636 16.8553 16.8557C16.3631 17.3479 15.6957 17.6243 14.9997 17.6243Z" fill="#FAD1D1"></path> <path d="M19.2025 11.7424C19.7242 11.7424 20.1472 11.3195 20.1472 10.7977C20.1472 10.276 19.7242 9.85303 19.2025 9.85303C18.6808 9.85303 18.2578 10.276 18.2578 10.7977C18.2578 11.3195 18.6808 11.7424 19.2025 11.7424Z" fill="#FAD1D1"></path> </g> <defs> <clipPath id="clip0_772_13"> <rect width="16" height="16" fill="white" transform="translate(7 7)"></rect> </clipPath> </defs> </svg> 