<svg width="108" height="22" viewBox="0 0 108 22" fill="none" xmlns="http://www.w3.org/2000/svg">
<path d="M96.6437 2.22266H99.199V3.7114C99.199 4.6002 99.0731 5.46678 98.8213 6.31114C98.5842 7.14069 98.2287 7.9258 97.7547 8.66647C97.2807 9.40714 96.6955 10.0811 95.9993 10.6885C95.3179 11.281 94.5328 11.7921 93.644 12.2217C92.7552 12.6513 91.7775 12.9698 90.7109 13.1771L89.4444 10.7107C90.3628 10.5478 91.1998 10.3033 91.9553 9.97745C92.7256 9.63674 93.3996 9.22938 93.9773 8.75535C94.555 8.28132 95.0439 7.77026 95.4438 7.22217C95.8438 6.65926 96.14 6.08154 96.3326 5.489C96.54 4.88165 96.6437 4.28912 96.6437 3.7114V2.22266ZM97.2214 2.22266H99.7989V3.7114C99.7989 4.30393 99.8952 4.90387 100.088 5.51122C100.295 6.11857 100.591 6.7037 100.977 7.26661C101.377 7.8147 101.865 8.31836 102.443 8.77757C103.021 9.23678 103.687 9.63674 104.443 9.97745C105.198 10.3033 106.05 10.5478 106.998 10.7107L105.732 13.1771C104.665 12.9698 103.687 12.6513 102.799 12.2217C101.91 11.7921 101.117 11.281 100.421 10.6885C99.7397 10.096 99.1546 9.42936 98.6657 8.68869C98.1917 7.94802 97.8288 7.15551 97.5769 6.31114C97.3399 5.46678 97.2214 4.6002 97.2214 3.7114V2.22266ZM89 16.6879H107.643V19.1099H89V16.6879Z" fill="black" stroke="black" stroke-width="0.139331"/>
<path d="M67.4658 5.73335H70.71V8.11089H67.4658V5.73335ZM73.9985 1.04492H76.8205V16.4212H73.9985V1.04492ZM69.91 1.37822H72.6653V15.8212H69.91V1.37822ZM62.9552 18.8876H77.3315V21.2652H62.9552V18.8876ZM62.9552 14.6436H65.9327V20.3764H62.9552V14.6436ZM62.9107 2.40034H65.2216V5.04453C65.2216 6.25922 65.0587 7.43689 64.7328 8.57752C64.4217 9.71814 63.9254 10.7477 63.244 11.6661C62.5774 12.5697 61.696 13.2808 60.5998 13.7992L59 11.5328C59.9481 11.0736 60.7035 10.4958 61.2664 9.79962C61.8442 9.10339 62.2589 8.3405 62.5108 7.51095C62.7774 6.68141 62.9107 5.85926 62.9107 5.04453V2.40034ZM63.4884 2.40034H65.7549V5.04453C65.7549 5.84445 65.8734 6.62215 66.1104 7.37763C66.3474 8.13311 66.7252 8.82934 67.2436 9.46632C67.7769 10.0885 68.4657 10.6144 69.3101 11.0439L67.7103 13.2882C66.703 12.7993 65.8882 12.1327 65.2661 11.2884C64.6439 10.444 64.1921 9.48854 63.9106 8.42198C63.6292 7.3406 63.4884 6.21479 63.4884 5.04453V2.40034Z" fill="black" stroke="black" stroke-width="0.139331"/>
<path d="M35.3106 2.4443C36.3327 2.4443 37.2437 2.74798 38.0437 3.35532C38.8584 3.94786 39.488 4.79963 39.9324 5.91063C40.3916 7.00682 40.6212 8.30299 40.6212 9.79914C40.6212 11.3101 40.3916 12.6211 39.9324 13.7321C39.488 14.8283 38.8584 15.68 38.0437 16.2874C37.2437 16.8799 36.3327 17.1762 35.3106 17.1762C34.2885 17.1762 33.3774 16.8799 32.5775 16.2874C31.7776 15.68 31.148 14.8283 30.6888 13.7321C30.2296 12.6211 30 11.3101 30 9.79914C30 8.30299 30.2296 7.00682 30.6888 5.91063C31.148 4.79963 31.7776 3.94786 32.5775 3.35532C33.3774 2.74798 34.2885 2.4443 35.3106 2.4443ZM35.3106 5.13293C34.8217 5.13293 34.3848 5.31069 33.9996 5.66621C33.6293 6.02173 33.3404 6.5476 33.133 7.24383C32.9256 7.92525 32.8219 8.77701 32.8219 9.79914C32.8219 10.8064 32.9256 11.6656 33.133 12.3767C33.3404 13.0729 33.6293 13.5988 33.9996 13.9543C34.3848 14.3098 34.8217 14.4876 35.3106 14.4876C35.8291 14.4876 36.2735 14.3098 36.6438 13.9543C37.0141 13.5988 37.303 13.0729 37.5104 12.3767C37.7178 11.6656 37.8215 10.8064 37.8215 9.79914C37.8215 8.77701 37.7178 7.92525 37.5104 7.24383C37.303 6.5476 37.0141 6.02173 36.6438 5.66621C36.2735 5.31069 35.8291 5.13293 35.3106 5.13293ZM43.9986 1H46.9539V21.6424H43.9986V1ZM39.7546 8.44371H45.2429V10.799H39.7546V8.44371Z" fill="black" stroke="black" stroke-width="0.139331"/>
<path d="M14.8431 1.04492H17.7984V15.8212H14.8431V1.04492ZM4.08859 18.8876H18.3316V21.2652H4.08859V18.8876ZM4.08859 14.3547H7.04385V19.8653H4.08859V14.3547ZM6.59945 2.3559C7.6512 2.3559 8.59925 2.5781 9.44362 3.02251C10.288 3.46691 10.9546 4.08166 11.4434 4.86677C11.9471 5.65188 12.1989 6.55549 12.1989 7.57761C12.1989 8.57011 11.9471 9.46632 11.4434 10.2662C10.9546 11.0513 10.288 11.6735 9.44362 12.1327C8.59925 12.5771 7.6512 12.7993 6.59945 12.7993C5.5477 12.7993 4.59965 12.5771 3.75529 12.1327C2.91092 11.6735 2.23692 11.0513 1.73326 10.2662C1.24442 9.46632 1 8.57011 1 7.57761C1 6.55549 1.24442 5.65188 1.73326 4.86677C2.23692 4.08166 2.91092 3.46691 3.75529 3.02251C4.59965 2.5781 5.5477 2.3559 6.59945 2.3559ZM6.59945 4.88899C6.0958 4.88899 5.63658 5.00009 5.22181 5.22229C4.80703 5.42968 4.48114 5.73335 4.24413 6.13331C4.00711 6.51846 3.88861 6.99989 3.88861 7.57761C3.88861 8.12571 4.00711 8.59974 4.24413 8.9997C4.48114 9.38484 4.80703 9.68852 5.22181 9.91072C5.63658 10.1181 6.0958 10.2218 6.59945 10.2218C7.10311 10.2218 7.56232 10.1181 7.97709 9.91072C8.39187 9.68852 8.71776 9.38484 8.95477 8.9997C9.19179 8.59974 9.3103 8.12571 9.3103 7.57761C9.3103 6.99989 9.19179 6.51846 8.95477 6.13331C8.71776 5.73335 8.39187 5.42968 7.97709 5.22229C7.56232 5.00009 7.10311 4.88899 6.59945 4.88899Z" fill="black" stroke="black" stroke-width="0.139331"/>
</svg>
