<svg width="193" height="19" viewBox="0 0 193 19" fill="none" xmlns="http://www.w3.org/2000/svg">
<path d="M184.651 7.74665H192.308V10.6818H184.651V15.595H192.321V18.6068H181.652V0.306641H192.347V3.30562H184.651V7.74665Z" fill="black"/>
<path d="M165.065 18.2102C164.121 18.627 163.015 18.8355 161.747 18.8355C160.454 18.8355 159.297 18.5632 158.276 18.0187C157.255 17.4742 156.46 16.7 155.89 15.6961C155.32 14.6837 155.043 13.5096 155.06 12.1739H158.149C158.14 12.9056 158.285 13.5437 158.583 14.0882C158.889 14.6327 159.318 15.0495 159.871 15.3388C160.424 15.6281 161.058 15.7727 161.773 15.7727C162.445 15.7727 163.036 15.6621 163.547 15.4409C164.066 15.2197 164.466 14.9177 164.746 14.5348C165.027 14.152 165.167 13.7223 165.167 13.2459C165.167 12.9396 165.091 12.6206 164.938 12.2888C164.87 12.1441 164.666 11.94 164.325 11.6762C164.155 11.5656 163.972 11.472 163.776 11.3955C163.708 11.3699 163.619 11.3317 163.508 11.2806C163.398 11.2296 163.27 11.1828 163.126 11.1402L162.692 11.0126L162.015 10.8212L161.288 10.6553C160.131 10.383 159.17 10.098 158.404 9.80027C157.408 9.40891 156.66 8.84315 156.158 8.10297C155.656 7.35429 155.405 6.44822 155.405 5.38475C155.405 4.28726 155.669 3.33864 156.196 2.53892C156.724 1.73919 157.459 1.13089 158.404 0.714008C159.357 0.288621 160.45 0.0759277 161.684 0.0759277C162.9 0.0759277 163.976 0.326906 164.912 0.828862C165.848 1.32231 166.571 2.04121 167.082 2.98557C167.601 3.92142 167.852 5.02317 167.835 6.29083H164.823C164.823 5.62722 164.687 5.05721 164.415 4.58077C164.151 4.09583 163.776 3.72575 163.292 3.47051C162.815 3.21528 162.254 3.08767 161.607 3.08767C160.96 3.08767 160.399 3.1855 159.922 3.38118C159.446 3.57686 159.08 3.8406 158.825 4.1724C158.578 4.5042 158.455 4.87429 158.455 5.28266C158.455 5.66551 158.57 6.01007 158.799 6.31635C158.961 6.53755 159.289 6.76726 159.782 7.00548C159.893 7.06503 160.127 7.15436 160.484 7.27347C160.765 7.36705 161.041 7.44788 161.313 7.51594L161.837 7.65632C162.568 7.83498 163.181 7.99663 163.674 8.14126C164.176 8.28589 164.666 8.44754 165.142 8.6262C166.869 9.27279 167.886 10.4341 168.192 12.1101C168.26 12.4504 168.294 12.8205 168.294 13.2204C168.294 14.3519 168.005 15.3558 167.426 16.2321C166.856 17.0999 166.069 17.7593 165.065 18.2102Z" fill="black"/>
<path d="M130.167 6.01108V18.6068H127.143V0.306641H129.771L138.705 12.7364V0.306641H141.729V18.6068H139.228L130.167 6.01108Z" fill="black"/>
<path d="M106.024 7.74665H113.681V10.6818H106.024V15.595H113.694V18.6068H103.025V0.306641H113.72V3.30562H106.024V7.74665Z" fill="black"/>
<path d="M86.4375 18.2102C85.4931 18.627 84.3871 18.8355 83.1195 18.8355C81.8263 18.8355 80.6692 18.5632 79.6483 18.0187C78.6274 17.4742 77.8319 16.7 77.2619 15.6961C76.6919 14.6837 76.4154 13.5096 76.4324 12.1739H79.5207C79.5122 12.9056 79.6568 13.5437 79.9546 14.0882C80.2609 14.6327 80.6905 15.0495 81.2435 15.3388C81.7965 15.6281 82.4303 15.7727 83.145 15.7727C83.8171 15.7727 84.4084 15.6621 84.9188 15.4409C85.4378 15.2197 85.8377 14.9177 86.1184 14.5348C86.3992 14.152 86.5396 13.7223 86.5396 13.2459C86.5396 12.9396 86.463 12.6206 86.3099 12.2888C86.2418 12.1441 86.0376 11.94 85.6973 11.6762C85.5271 11.5656 85.3442 11.472 85.1486 11.3955C85.0805 11.3699 84.9912 11.3317 84.8806 11.2806C84.77 11.2296 84.6423 11.1828 84.4977 11.1402L84.0638 11.0126L83.3875 10.8212L82.66 10.6553C81.503 10.383 80.5416 10.098 79.7759 9.80027C78.7805 9.40891 78.0318 8.84315 77.5299 8.10297C77.0279 7.35429 76.7769 6.44822 76.7769 5.38475C76.7769 4.28726 77.0407 3.33864 77.5682 2.53892C78.0956 1.73919 78.8316 1.13089 79.7759 0.714008C80.7288 0.288621 81.822 0.0759277 83.0557 0.0759277C84.2723 0.0759277 85.3485 0.326906 86.2843 0.828862C87.2202 1.32231 87.9433 2.04121 88.4538 2.98557C88.9728 3.92142 89.2238 5.02317 89.2067 6.29083H86.195C86.195 5.62722 86.0589 5.05721 85.7866 4.58077C85.5229 4.09583 85.1486 3.72575 84.6636 3.47051C84.1872 3.21528 83.6257 3.08767 82.9791 3.08767C82.3325 3.08767 81.771 3.1855 81.2945 3.38118C80.8181 3.57686 80.4523 3.8406 80.1971 4.1724C79.9503 4.5042 79.827 4.87429 79.827 5.28266C79.827 5.66551 79.9418 6.01007 80.1715 6.31635C80.3332 6.53755 80.6607 6.76726 81.1542 7.00548C81.2648 7.06503 81.4987 7.15436 81.8561 7.27347C82.1368 7.36705 82.4133 7.44788 82.6856 7.51594L83.2088 7.65632C83.9405 7.83498 84.553 7.99663 85.0465 8.14126C85.5484 8.28589 86.0376 8.44754 86.514 8.6262C88.2411 9.27279 89.2578 10.4341 89.5641 12.1101C89.6321 12.4504 89.6662 12.8205 89.6662 13.2204C89.6662 14.3519 89.3769 15.3558 88.7984 16.2321C88.2284 17.0999 87.4414 17.7593 86.4375 18.2102Z" fill="black"/>
<path d="M63.0882 14.293C62.2629 15.7223 61.1186 16.8496 59.6553 17.6748C58.1835 18.5001 56.5457 18.9127 54.7421 18.9127C52.9214 18.9127 51.288 18.5043 49.8416 17.6876C48.3783 16.8538 47.234 15.718 46.4088 14.2802C45.5835 12.8339 45.1709 11.226 45.1709 9.45635C45.1709 7.67823 45.5793 6.07027 46.396 4.63246C47.2298 3.17764 48.3783 2.04186 49.8416 1.22511C51.305 0.408371 52.9385 0 54.7421 0C56.5287 0 58.1622 0.408371 59.6426 1.22511C61.1144 2.03335 62.2672 3.16488 63.1009 4.6197C63.9177 6.05751 64.3261 7.66972 64.3261 9.45635C64.3261 11.2345 63.9134 12.8467 63.0882 14.293ZM60.3317 6.18938C59.7787 5.20248 59.0172 4.43678 58.0474 3.89229C57.0605 3.33929 55.9587 3.06278 54.7421 3.06278C53.551 3.06278 52.4535 3.34354 51.4496 3.90505C50.5052 4.43253 49.7438 5.19397 49.1653 6.18938C48.6123 7.14224 48.3358 8.23123 48.3358 9.45635C48.3358 10.6474 48.6123 11.7322 49.1653 12.7106C49.7183 13.6889 50.4797 14.4546 51.4496 15.0076C52.4365 15.5692 53.534 15.8499 54.7421 15.8499C55.9757 15.8499 57.0775 15.5734 58.0474 15.0204C59.0087 14.4759 59.7702 13.7102 60.3317 12.7233C60.8847 11.7705 61.1612 10.6815 61.1612 9.45635C61.1612 8.25676 60.8847 7.16777 60.3317 6.18938Z" fill="black"/>
<path d="M20.1993 6.01108V18.6068H17.1748V0.306641H19.8037L28.7368 12.7364V0.306641H31.7613V18.6068H29.26L20.1993 6.01108Z" fill="black"/>
<path d="M0 0.306641H2.6927V18.6068H0V0.306641Z" fill="black"/>
</svg>
