<svg width="86" height="20" viewBox="0 0 86 20" fill="none" xmlns="http://www.w3.org/2000/svg">
<path id="Vector" d="M35.9203 14.9342H28.5023L37.9725 2.24819C38.1789 1.96963 38.1216 1.5634 37.8464 1.35448C37.7432 1.27323 37.6057 1.22681 37.4681 1.22681H23.7672C22.5634 1.22681 21.5774 2.22498 21.5774 3.44367C21.5774 4.66236 22.5634 5.66053 23.7672 5.66053H29.924L20.4194 18.3581C20.2016 18.6367 20.2589 19.0313 20.5341 19.2519C20.6487 19.3447 20.7863 19.3911 20.9239 19.3795H35.9088C37.1127 19.3215 38.0413 18.2769 37.984 17.0466C37.9267 15.9092 37.0324 15.0038 35.9088 14.9458V14.9342H35.9203ZM83.7987 1.22681C82.5949 1.22681 81.6088 2.22498 81.6088 3.44367V10.8835L69.7768 1.37769C69.5131 1.15717 69.1119 1.19199 68.894 1.47055C68.8023 1.58661 68.7564 1.72589 68.7564 1.87678V17.1627C68.7564 18.3814 69.7424 19.3795 70.9463 19.3795C72.1501 19.3795 73.1361 18.393 73.1361 17.1627V9.72284L84.9681 19.2402C85.2433 19.4608 85.6446 19.4143 85.8624 19.1358C85.9541 19.0197 86 18.8804 86 18.7412V3.44367C85.9885 2.21337 85.014 1.22681 83.7987 1.22681ZM52.4874 15.352C47.4771 15.352 43.7395 12.6825 43.7395 10.2916C43.7395 7.9006 47.4886 5.23108 52.4874 5.23108C57.4977 5.23108 61.2353 7.9006 61.2353 10.2916C61.2353 12.6825 57.5091 15.352 52.4874 15.352ZM52.4874 0.797363C45.2414 0.797363 39.3598 5.04538 39.3598 10.2916C39.3598 15.5377 45.2414 19.7858 52.4874 19.7858C59.7334 19.7858 65.615 15.5377 65.615 10.2916C65.615 5.04538 59.7334 0.797363 52.4874 0.797363ZM9.38995 15.3636C6.62685 15.3636 4.37968 13.1004 4.37968 10.3032C4.37968 7.50598 6.61539 5.23108 9.37848 5.23108C12.1416 5.23108 14.3887 7.49437 14.3887 10.2916V10.3032C14.3887 13.0887 12.153 15.352 9.38995 15.3636ZM9.38995 0.797363C4.20771 0.797363 0.0114651 5.04538 0 10.2916C0 15.5377 4.19624 19.7858 9.37848 19.7974C14.5607 19.7974 18.757 15.5493 18.7684 10.3032V10.2916C18.757 5.04538 14.5607 0.797363 9.38995 0.797363Z" fill="white"/>
</svg>
