<svg width="99" height="20" viewBox="0 0 99 20" fill="none" xmlns="http://www.w3.org/2000/svg">
<g id="Group 1171275615">
<path id="Star 9" d="M9.5 0.558838L11.9011 6.754L18.535 7.12318L13.3851 11.3212L15.084 17.7445L9.5 14.1438L3.91604 17.7445L5.61493 11.3212L0.464963 7.12318L7.0989 6.754L9.5 0.558838Z" fill="#EF8100"/>
<path id="Star 10" d="M29.5 0.558838L31.9011 6.754L38.535 7.12318L33.3851 11.3212L35.084 17.7445L29.5 14.1438L23.916 17.7445L25.6149 11.3212L20.465 7.12318L27.0989 6.754L29.5 0.558838Z" fill="#EF8100"/>
<path id="Star 11" d="M49.5 0.558838L51.9011 6.754L58.535 7.12318L53.3851 11.3212L55.084 17.7445L49.5 14.1438L43.916 17.7445L45.6149 11.3212L40.465 7.12318L47.0989 6.754L49.5 0.558838Z" fill="#EF8100"/>
<path id="Star 12" d="M69.5 0.558838L71.9011 6.754L78.535 7.12318L73.3851 11.3212L75.084 17.7445L69.5 14.1438L63.916 17.7445L65.6149 11.3212L60.465 7.12318L67.0989 6.754L69.5 0.558838Z" fill="#EF8100"/>
<path id="Star 13" d="M89.5 0.558838L91.9011 6.754L98.535 7.12318L93.3851 11.3212L95.084 17.7445L89.5 14.1438L83.916 17.7445L85.6149 11.3212L80.465 7.12318L87.0989 6.754L89.5 0.558838Z" fill="#EF8100"/>
</g>
</svg>
