<svg width="170" height="21" viewBox="0 0 170 21" fill="none" xmlns="http://www.w3.org/2000/svg">
<g id="Group 1171275672">
<path id="Vector" d="M5.68123 19.723L0.523438 0.453186H3.90888L7.8697 15.2536L12.1182 0.453186H15.2725L19.5364 15.3307L23.5178 0.458323L26.8981 0.453186L21.7403 19.7179L17.8154 19.7127L13.6953 5.3233L9.57013 19.7179L5.68123 19.723Z" fill="white"/>
<path id="Vector_2" d="M32.4564 0.8078H29.2354V20.0519H32.4564V0.8078Z" fill="white"/>
<path id="Vector_3" d="M39.3405 17.0364H47.1851V20.0519H36.1863V0.8078H39.3405V17.0364Z" fill="white"/>
<path id="Vector_4" d="M57.0892 17.057C58.9129 17.057 60.3975 16.4354 61.5123 15.1922C62.6682 13.9489 63.2436 12.3513 63.2436 10.4659C63.2436 8.58052 62.6682 6.98283 61.5123 5.73962C60.377 4.4964 58.8923 3.8748 57.0892 3.8748H52.6917V17.0621H57.0892V17.057ZM57.0892 0.807861C59.7348 0.807861 61.9336 1.76339 63.6648 3.60252C65.4218 5.44679 66.3105 7.73287 66.3105 10.4402C66.3105 13.1475 65.4218 15.4131 63.6648 17.2779C61.9336 19.1221 59.7348 20.052 57.0892 20.052H49.5117V0.807861H57.0892Z" fill="white"/>
<path id="Vector_5" d="M77.5305 17.1083C78.9946 17.1083 80.1505 15.9114 80.1505 14.401C80.1505 12.8907 78.9946 11.7142 77.5305 11.7142H72.4446V17.1083H77.5305ZM72.4395 3.78233V8.84765H76.9243C78.3216 8.84765 79.3902 7.73801 79.3902 6.31499C79.3902 4.89197 78.3216 3.78233 76.9243 3.78233H72.4395ZM83.3047 14.5551C83.3047 16.1323 82.7499 17.4423 81.6146 18.4851C80.4793 19.528 79.1487 20.0623 77.5048 20.0623H69.2646V0.807861H76.9089C78.486 0.807861 79.8166 1.34213 80.9057 2.33876C82.0153 3.36107 82.5496 4.62484 82.5496 6.13519C82.5496 7.82534 81.8817 9.10965 80.5923 10.0652C82.2824 10.9539 83.3047 12.5516 83.3047 14.55V14.5551Z" fill="white"/>
<path id="Vector_6" d="M89.459 17.0416H97.9868V20.0623H86.3047V0.807861H97.8532V3.82856H89.459V8.8271H97.1648V11.8221H89.459V17.0416Z" fill="white"/>
<path id="Vector_7" d="M103.988 3.78227V10.2244H108.519C110.209 10.2244 111.54 8.80136 111.54 7.00332C111.54 5.20528 110.184 3.78227 108.519 3.78227H103.988ZM111.807 20.0622L107.718 13.0447H103.988V20.0622H100.834V0.8078H108.545C110.276 0.8078 111.745 1.40886 112.922 2.62639C114.124 3.80281 114.745 5.26693 114.745 7.00332C114.745 9.44865 113.215 11.6885 110.923 12.5772L115.3 20.0622H111.812H111.807Z" fill="white"/>
<path id="Vector_8" d="M120.869 3.77697V10.2191H125.4C127.09 10.2191 128.421 8.79606 128.421 6.99802C128.421 5.19998 127.064 3.77697 125.4 3.77697H120.869ZM128.667 20.062L124.604 13.0394H120.874V20.062H117.72V0.797363H125.431C127.162 0.797363 128.631 1.39842 129.808 2.62109C131.01 3.79752 131.631 5.26677 131.631 6.99802C131.631 9.44335 130.1 11.6883 127.809 12.5771L132.186 20.0672H128.677L128.667 20.062Z" fill="white"/>
<path id="Vector_9" d="M137.642 0.802795H134.488V20.0675H137.642V0.802795Z" fill="white"/>
<path id="Vector_10" d="M144.531 17.0415H153.059V20.0622H141.377V0.8078H152.925V3.8285H144.531V8.82704H152.237V11.8221H144.531V17.0415Z" fill="white"/>
<path id="Vector_11" d="M155.258 15.6799L157.991 14.0822C158.767 16.2553 160.344 17.3238 162.768 17.3238C165.193 17.3238 166.344 16.3015 166.344 14.7912C166.344 13.9898 166.01 13.4144 165.388 13.0137C164.767 12.5924 163.611 12.1249 161.967 11.6369C160.123 11.0821 159.213 10.7276 157.924 9.88511C156.681 8.99637 156.059 7.7326 156.059 6.00135C156.059 4.2701 156.66 2.9601 157.883 1.96348C159.085 0.941163 160.549 0.453125 162.26 0.453125C165.347 0.453125 167.726 2.05081 168.969 4.69135L166.303 6.22225C165.501 4.44477 164.15 3.53547 162.26 3.53547C160.369 3.53547 159.239 4.46531 159.239 5.93457C159.239 7.40382 160.174 8.02029 163.128 8.92958C163.863 9.17617 164.392 9.35084 164.726 9.4844C165.08 9.59742 165.548 9.79264 166.149 10.0392C166.77 10.2858 167.258 10.5735 167.546 10.815C168.568 11.6164 169.524 12.8904 169.524 14.7655C169.524 16.4967 168.902 17.8941 167.633 18.9164C166.39 19.9387 164.746 20.4267 162.702 20.4267C158.972 20.4062 156.26 18.6287 155.258 15.6748V15.6799Z" fill="white"/>
</g>
</svg>
