<svg width="147" height="147" viewBox="0 0 147 147" fill="none" xmlns="http://www.w3.org/2000/svg">
<circle cx="73.4575" cy="73.4575" r="73.4575" fill="#FAD1D1"/>
<path d="M46.9544 125.902L52.2271 112.633L54.2227 113.426L49.6297 124.985L55.8755 127.467L60.4685 115.908L62.4641 116.701L57.1914 129.97L46.9544 125.902Z" fill="black"/>
<path d="M47.5648 109.633L37.9375 120.177L34.1789 116.746C33.3586 115.997 32.8153 115.227 32.549 114.436C32.2828 113.646 32.2524 112.869 32.4579 112.106C32.6602 111.347 33.056 110.645 33.6452 109.999C34.2375 109.35 34.9058 108.891 35.6502 108.62C36.388 108.35 37.166 108.311 37.9841 108.504C38.7956 108.697 39.6099 109.167 40.4268 109.913L43.0114 112.273L41.7798 113.622L39.3393 111.394C38.821 110.92 38.3191 110.626 37.8335 110.51C37.3447 110.397 36.8822 110.428 36.446 110.602C36.0098 110.777 35.6099 111.063 35.2464 111.461C34.8829 111.859 34.6356 112.282 34.5046 112.729C34.3736 113.175 34.3912 113.635 34.5574 114.108C34.7203 114.578 35.066 115.054 35.5946 115.536L37.5923 117.36L45.9738 108.18L47.5648 109.633Z" fill="black"/>
<path d="M24.2616 105.387L23.2971 103.484L32.65 98.7437L32.5901 98.6255L19.9529 96.8862L19.0514 95.1076L31.7873 88.6524L32.7613 90.574L23.4208 95.3082L23.4807 95.4264L36.0992 97.1596L36.9975 98.932L24.2616 105.387Z" fill="black"/>
<path d="M30.1253 78.8718C30.2279 79.8237 30.1555 80.6917 29.9081 81.4757C29.6602 82.2551 29.2686 82.8933 28.7331 83.3905C28.1926 83.8835 27.5382 84.1878 26.7699 84.3034L26.5353 82.1268C26.9528 82.0537 27.3027 81.8734 27.5849 81.5859C27.862 81.2942 28.0613 80.9315 28.1829 80.4977C28.3044 80.0638 28.3378 79.5927 28.283 79.0844C28.2227 78.5253 28.0723 78.0413 27.8319 77.6324C27.591 77.2189 27.2841 76.9084 26.9111 76.7009C26.5335 76.4938 26.1159 76.4149 25.6584 76.4643C25.1825 76.5156 24.7774 76.6831 24.4434 76.9669C24.1042 77.2465 23.8558 77.6309 23.6982 78.1201C23.54 78.6046 23.4963 79.175 23.5671 79.8312L23.6964 81.0304L21.9496 81.2187L21.8203 80.0195C21.7635 79.4927 21.619 79.0408 21.3867 78.6638C21.1538 78.2822 20.8566 77.9963 20.4948 77.8063C20.1284 77.6167 19.7165 77.5466 19.259 77.5959C18.82 77.6432 18.4495 77.7836 18.1474 78.0172C17.8402 78.2467 17.6137 78.5516 17.4677 78.932C17.3212 79.3077 17.2741 79.7382 17.3264 80.2234C17.3762 80.6855 17.5083 81.1084 17.7226 81.492C17.9318 81.8715 18.207 82.1691 18.5481 82.3847C18.8846 82.6009 19.2711 82.6948 19.7074 82.6665L19.9309 84.7391C19.1613 84.7986 18.4622 84.6449 17.8336 84.2779C17.2045 83.9063 16.6875 83.3824 16.2827 82.7061C15.8779 82.0298 15.6287 81.2573 15.535 80.3885C15.4369 79.4781 15.5301 78.6734 15.8147 77.9742C16.0942 77.2709 16.5079 76.7074 17.056 76.2836C17.6035 75.8553 18.2264 75.6058 18.9247 75.5352C19.719 75.4449 20.4176 75.594 21.0205 75.9825C21.6228 76.3664 22.0586 76.9178 22.3278 77.6367L22.4387 77.6248C22.4803 76.6666 22.7759 75.8961 23.3255 75.3133C23.8746 74.7258 24.5976 74.3861 25.4946 74.2941C26.2751 74.2053 26.9986 74.347 27.6652 74.7193C28.3312 75.0869 28.8828 75.6282 29.3198 76.3431C29.7522 77.0584 30.0207 77.9014 30.1253 78.8718Z" fill="black"/>
<path d="M29.6063 68.6249L15.7873 65.0323L16.3293 62.9473L22.3346 64.5086L24.1257 57.6193L18.1203 56.0581L18.6641 53.9663L32.4832 57.5589L31.9394 59.6507L25.9138 58.0842L24.1227 64.9734L30.1483 66.5399L29.6063 68.6249Z" fill="black"/>
<path d="M35.4577 51.8348L34.1143 53.6853L25.5782 41.1391L27.0404 39.1249L41.6136 43.355L40.2702 45.2055L28.4429 41.6077L28.3773 41.6979L35.4577 51.8348ZM31.1581 48.2397L35.516 42.2366L36.9829 43.3015L32.625 49.3046L31.1581 48.2397Z" fill="black"/>
<path d="M44.9192 40.3323L37.2228 28.3058L39.0373 27.1445L42.382 32.3709L48.3776 28.534L45.033 23.3076L46.8534 22.1426L54.5498 34.1692L52.7294 35.3342L49.3735 30.0902L43.3778 33.9271L46.7337 39.1711L44.9192 40.3323Z" fill="black"/>
<path d="M56.7266 18.1738L58.8217 17.7714L60.7995 28.0688L60.9296 28.0438L66.086 16.3761L68.0442 16L70.7374 30.0221L68.6218 30.4284L66.6466 20.1447L66.5165 20.1696L61.3711 31.8211L59.4198 32.1959L56.7266 18.1738Z" fill="black"/>
<path d="M75.9423 30.1712L78.2187 16.0754L87.056 17.5026L86.7604 19.3334L80.0497 18.2497L79.3562 22.5445L85.6057 23.5537L85.3111 25.3776L79.0616 24.3684L78.3647 28.6839L85.1579 29.7809L84.8623 31.6117L75.9423 30.1712Z" fill="black"/>
<path d="M96.5863 36.6763L105.454 25.4853L109.552 28.7327C110.346 29.362 110.9 30.0142 111.213 30.6893C111.529 31.3607 111.64 32.0211 111.547 32.6705C111.456 33.3162 111.191 33.9159 110.753 34.4697C110.383 34.936 109.986 35.2616 109.561 35.4465C109.138 35.6277 108.707 35.7009 108.266 35.6659C107.832 35.6302 107.409 35.5204 106.997 35.3364L106.91 35.4457C107.267 35.7584 107.535 36.1658 107.712 36.668C107.896 37.1695 107.944 37.7148 107.857 38.3039C107.769 38.893 107.496 39.4771 107.037 40.0563C106.584 40.6283 106.042 41.0351 105.412 41.2769C104.788 41.5179 104.092 41.5505 103.324 41.3748C102.559 41.1954 101.743 40.7622 100.876 40.0752L96.5863 36.6763ZM99.4222 36.5662L101.859 38.4973C102.668 39.1381 103.371 39.4404 103.969 39.4043C104.567 39.3681 105.052 39.115 105.425 38.6451C105.705 38.2917 105.872 37.8968 105.928 37.4603C105.983 37.0238 105.914 36.5867 105.721 36.1492C105.532 35.7146 105.211 35.3183 104.76 34.9603L102.263 32.9816L99.4222 36.5662ZM103.306 31.6647L105.568 33.4572C105.947 33.7574 106.346 33.9545 106.763 34.0483C107.185 34.1451 107.589 34.1331 107.975 34.0122C108.368 33.8906 108.707 33.6495 108.993 33.2889C109.36 32.8262 109.505 32.3098 109.429 31.7396C109.353 31.1694 108.98 30.6187 108.31 30.0876L106.004 28.2604L103.306 31.6647Z" fill="black"/>
<path d="M111.765 52.1711L113.509 51.5006L113.672 51.886C113.888 52.4103 114.228 52.7576 114.692 52.9279C115.158 53.1025 115.803 53.1107 116.629 52.9527C117.456 52.799 118.523 52.4983 119.83 52.0507L126.178 49.8718L129.417 58.2991L116.09 63.4226L115.327 61.4378L126.949 56.9698L125.201 52.421L120.032 54.1691C118.583 54.6614 117.328 54.9794 116.268 55.123C115.212 55.265 114.331 55.1556 113.625 54.7947C112.92 54.4382 112.373 53.7546 111.985 52.7437L111.765 52.1711Z" fill="black"/>
<path d="M131.615 71.4749L117.367 70.535L117.509 68.3853L131.756 69.3252L131.615 71.4749ZM125.017 74.1489L123.215 74.03L123.507 69.6125L125.309 69.7313L125.017 74.1489ZM123.483 86.2889C121.961 86.1885 120.672 85.824 119.614 85.1952C118.561 84.5668 117.772 83.7485 117.247 82.7403C116.726 81.7371 116.506 80.621 116.587 79.392C116.669 78.1583 117.033 77.0761 117.682 76.1453C118.334 75.2195 119.226 74.5145 120.358 74.0301C121.489 73.5458 122.813 73.3536 124.329 73.4537C125.851 73.554 127.138 73.9184 128.191 74.5469C129.249 75.1756 130.038 75.9916 130.559 76.9948C131.084 78.003 131.306 79.1239 131.224 80.3576C131.143 81.5866 130.776 82.664 130.124 83.5898C129.475 84.5206 128.586 85.2281 127.454 85.7125C126.328 86.1971 125.004 86.3892 123.483 86.2889ZM123.623 84.1601C124.782 84.2366 125.771 84.1132 126.589 83.7898C127.411 83.4714 128.048 83.001 128.499 82.3787C128.954 81.7612 129.209 81.0444 129.262 80.2281C129.317 79.4072 129.159 78.6609 128.788 77.989C128.423 77.3174 127.853 76.7674 127.081 76.3392C126.312 75.9158 125.348 75.6659 124.188 75.5894C123.029 75.5129 122.038 75.6339 121.216 75.9523C120.398 76.2756 119.762 76.746 119.306 77.3634C118.856 77.9812 118.603 78.7005 118.549 79.5214C118.495 80.3377 118.651 81.0816 119.017 81.7532C119.387 82.4297 119.956 82.9796 120.724 83.403C121.497 83.8312 122.464 84.0836 123.623 84.1601Z" fill="black"/>
<path d="M114.294 90.057L126.913 96.7377L122.747 104.606L121.108 103.738L124.266 97.7739L120.815 95.9472L119.321 98.7692C118.826 99.7058 118.253 100.42 117.603 100.912C116.951 101.409 116.256 101.683 115.519 101.734C114.78 101.79 114.034 101.618 113.283 101.22C112.531 100.822 111.96 100.297 111.57 99.6431C111.177 98.9936 110.993 98.2543 111.016 97.4253C111.037 96.6003 111.296 95.7196 111.792 94.783L114.294 90.057ZM114.888 92.8091L113.394 95.6311C113.107 96.1734 112.971 96.6879 112.987 97.1748C113 97.6658 113.126 98.0981 113.365 98.4716C113.602 98.8493 113.915 99.1415 114.305 99.3481C114.872 99.6482 115.474 99.6882 116.111 99.468C116.753 99.2501 117.289 98.7344 117.719 97.9211L119.213 95.0991L114.888 92.8091Z" fill="black"/>
<path d="M106.485 102.923L116.112 113.468L112.251 116.993C111.502 117.676 110.77 118.119 110.054 118.32C109.34 118.524 108.671 118.528 108.045 118.332C107.422 118.139 106.872 117.782 106.396 117.26C105.995 116.821 105.737 116.376 105.622 115.927C105.511 115.481 105.508 115.043 105.613 114.614C105.718 114.191 105.894 113.791 106.141 113.414L106.047 113.311C105.681 113.614 105.236 113.812 104.712 113.907C104.188 114.008 103.642 113.968 103.074 113.788C102.507 113.607 101.974 113.244 101.476 112.698C100.984 112.16 100.669 111.56 100.531 110.899C100.393 110.244 100.472 109.552 100.769 108.822C101.068 108.095 101.626 107.359 102.443 106.613L106.485 102.923ZM106.14 105.74L103.843 107.837C103.081 108.532 102.67 109.178 102.61 109.774C102.55 110.37 102.723 110.89 103.127 111.333C103.431 111.665 103.794 111.894 104.216 112.019C104.638 112.143 105.08 112.145 105.543 112.025C106.002 111.907 106.445 111.655 106.871 111.266L109.223 109.118L106.14 105.74ZM110.356 110.358L108.225 112.305C107.868 112.631 107.61 112.992 107.45 113.39C107.287 113.79 107.234 114.191 107.292 114.591C107.349 114.999 107.533 115.372 107.843 115.712C108.241 116.148 108.727 116.374 109.302 116.39C109.877 116.407 110.481 116.126 111.112 115.55L113.285 113.566L110.356 110.358Z" fill="black"/>
<path d="M100.141 125.745L98.1589 126.533L94.2868 116.788L94.1637 116.837L91.2846 129.265L89.4315 130.001L84.1589 116.732L86.1609 115.936L90.0279 125.668L90.151 125.619L93.0223 113.21L94.8688 112.476L100.141 125.745Z" fill="black"/>
<path d="M87.1457 66.2123C86.7998 65.378 86.3114 64.6454 85.7009 64.0349C85.0904 63.4244 84.3579 62.9157 83.5236 62.5494C82.6689 62.1831 81.7532 62 80.7561 62C79.759 62 78.8433 62.1831 77.9886 62.5494C77.1339 62.9157 76.4217 63.4041 75.8113 64.0349C75.2008 64.6454 74.7124 65.378 74.3665 66.2123C74.0816 66.9041 73.9391 67.6571 73.8781 68.4303H73.8374H73.7967C73.756 67.6571 73.6136 66.9245 73.3083 66.2326C72.9624 65.3983 72.474 64.6657 71.8635 64.0553C71.2531 63.4448 70.5205 62.9361 69.6862 62.5698C68.8315 62.2035 67.9158 62.0203 66.9187 62.0203C65.9216 62.0203 65.0059 62.2035 64.1512 62.5698C63.2966 62.9361 62.5843 63.4244 61.9739 64.0553C61.3634 64.6657 60.875 65.3983 60.5291 66.2326C60.1831 67.0669 60 67.9623 60 68.8983C60 69.8344 60.1831 70.7298 60.5291 71.5641C60.875 72.3984 61.3634 73.131 61.9739 73.7414C61.9942 73.7618 62.0349 73.7821 62.0553 73.8025L73.8374 85.5846L85.6195 73.8025C85.6195 73.8025 85.6806 73.7618 85.7009 73.7414C86.3114 73.1106 86.7998 72.378 87.1457 71.5641C87.4916 70.7298 87.6748 69.8548 87.6748 68.8983C87.6748 67.9419 87.4916 67.0669 87.1457 66.2326V66.2123Z" fill="black"/>
</svg>
